<svg width="94" height="40" viewBox="0 0 94 40" fill="none" xmlns="http://www.w3.org/2000/svg">
<path d="M10.7025 19.07C13.6875 20.1192 16.8366 20.6243 20 20.5612C23.1635 20.6239 26.3126 20.1184 29.2975 19.0688C31.6275 18.16 32.4538 17.15 32.4538 16.5688V12.125C31.6392 12.6705 30.7652 13.1217 29.8488 13.47C26.6906 14.6009 23.3541 15.1522 20 15.0975C16.6462 15.1512 13.3101 14.6007 10.1513 13.4725C9.23435 13.1242 8.36033 12.6721 7.54626 12.125V16.5625C7.54626 17.155 8.37501 18.16 10.7025 19.07Z" fill="#6D28D9"/>
<path d="M10.7025 27.4512C11.757 27.8534 12.8444 28.1633 13.9525 28.3775C15.9451 28.763 17.9705 28.9526 20 28.9437C22.0294 28.953 24.0549 28.7638 26.0475 28.3787C27.1556 28.1645 28.243 27.8546 29.2975 27.4525C31.6275 26.5437 32.4538 25.5337 32.4538 24.9525V20.715C31.7804 21.1202 31.0727 21.4653 30.3388 21.7462C27.021 22.9209 23.519 23.4896 20 23.425C16.4806 23.4876 12.9787 22.9168 9.66126 21.74C8.92767 21.4583 8.21999 21.1132 7.54626 20.7087V24.95C7.54626 25.5325 8.37501 26.5387 10.7025 27.4512Z" fill="#6D28D9"/>
<path d="M20 37.5C26.875 37.5 32.4538 35.32 32.4538 32.6325V29.0862C31.8412 29.4555 31.1995 29.7741 30.535 30.0387L30.3388 30.1175C27.0216 31.2957 23.5196 31.8677 20 31.8062C16.4803 31.8695 12.978 31.2974 9.66126 30.1175C9.59376 30.0925 9.52876 30.0637 9.46501 30.0387C8.80055 29.7741 8.15883 29.4555 7.54626 29.0862V32.6325C7.54626 35.32 13.125 37.5 20 37.5Z" fill="#6D28D9"/>
<path d="M20 12.235C26.878 12.235 32.4538 10.0557 32.4538 7.3675C32.4538 4.67925 26.878 2.5 20 2.5C13.122 2.5 7.54626 4.67925 7.54626 7.3675C7.54626 10.0557 13.122 12.235 20 12.235Z" fill="#6D28D9"/>
<path d="M44.7305 14.623H42.2559V12.7705H44.7305C45.0677 12.7705 45.3411 12.7135 45.5508 12.5996C45.7604 12.4857 45.9131 12.3285 46.0088 12.1279C46.109 11.9229 46.1592 11.6927 46.1592 11.4375C46.1592 11.1641 46.109 10.9111 46.0088 10.6787C45.9131 10.4463 45.7604 10.2594 45.5508 10.1182C45.3411 9.97233 45.0677 9.89941 44.7305 9.89941H43.1582V18H40.7588V8.04688H44.7305C45.528 8.04688 46.2139 8.19271 46.7881 8.48438C47.3669 8.77604 47.8112 9.17708 48.1211 9.6875C48.431 10.1934 48.5859 10.7721 48.5859 11.4238C48.5859 12.0664 48.431 12.627 48.1211 13.1055C47.8112 13.584 47.3669 13.9577 46.7881 14.2266C46.2139 14.4909 45.528 14.623 44.7305 14.623ZM53.4621 7.5V18H51.1516V7.5H53.4621ZM59.9858 16.1406V13.0918C59.9858 12.8822 59.9562 12.7021 59.897 12.5518C59.8377 12.4014 59.7443 12.2852 59.6167 12.2031C59.4891 12.1165 59.3182 12.0732 59.104 12.0732C58.9308 12.0732 58.7827 12.1029 58.6596 12.1621C58.5366 12.2214 58.4432 12.3102 58.3794 12.4287C58.3156 12.5472 58.2837 12.6976 58.2837 12.8799H55.98C55.98 12.5381 56.0552 12.2214 56.2055 11.9297C56.3605 11.6335 56.5792 11.376 56.8618 11.1572C57.1489 10.9385 57.4907 10.7699 57.8872 10.6514C58.2882 10.5283 58.7348 10.4668 59.227 10.4668C59.8149 10.4668 60.339 10.5648 60.7993 10.7607C61.2641 10.9567 61.631 11.2507 61.8999 11.6426C62.1688 12.0299 62.3032 12.5176 62.3032 13.1055V16.1338C62.3032 16.6169 62.3305 16.9837 62.3852 17.2344C62.4399 17.4805 62.5174 17.6969 62.6177 17.8838V18H60.3071C60.1977 17.7721 60.1157 17.4941 60.061 17.166C60.0109 16.8333 59.9858 16.4915 59.9858 16.1406ZM60.2661 13.4814L60.2798 14.7119H59.2612C59.047 14.7119 58.8647 14.7415 58.7143 14.8008C58.5685 14.86 58.45 14.9421 58.3589 15.0469C58.2723 15.1471 58.2085 15.2611 58.1675 15.3887C58.131 15.5163 58.1128 15.6507 58.1128 15.792C58.1128 15.9287 58.1447 16.0518 58.2085 16.1611C58.2768 16.266 58.368 16.348 58.4819 16.4072C58.5958 16.4665 58.7235 16.4961 58.8647 16.4961C59.1199 16.4961 59.3364 16.4482 59.5141 16.3525C59.6964 16.2523 59.8354 16.1315 59.9311 15.9902C60.0268 15.849 60.0747 15.7168 60.0747 15.5938L60.5805 16.5371C60.4894 16.7194 60.3846 16.904 60.2661 17.0908C60.1522 17.2777 60.0086 17.4508 59.8354 17.6104C59.6668 17.7653 59.4595 17.8929 59.2134 17.9932C58.9673 18.0889 58.6688 18.1367 58.3179 18.1367C57.8621 18.1367 57.4429 18.0433 57.06 17.8564C56.6818 17.6696 56.3787 17.4098 56.1509 17.0771C55.923 16.7399 55.8091 16.3525 55.8091 15.915C55.8091 15.5322 55.8774 15.1904 56.0141 14.8896C56.1554 14.5889 56.3673 14.3337 56.6499 14.124C56.9324 13.9144 57.2925 13.7549 57.73 13.6455C58.1675 13.5361 58.6824 13.4814 59.2749 13.4814H60.2661ZM67.0017 17.1318L68.9157 10.6035H71.3904L68.4167 19.1006C68.3529 19.2874 68.2686 19.488 68.1638 19.7021C68.059 19.9209 67.9154 20.1283 67.7331 20.3242C67.5508 20.5202 67.3161 20.6797 67.029 20.8027C66.7465 20.9258 66.3956 20.9873 65.9763 20.9873C65.753 20.9873 65.5889 20.9759 65.4841 20.9531C65.3838 20.9349 65.2289 20.9007 65.0193 20.8506V19.2031C65.0785 19.2031 65.1286 19.2031 65.1696 19.2031C65.2152 19.2031 65.2654 19.2031 65.32 19.2031C65.5661 19.2031 65.7621 19.1781 65.9079 19.1279C66.0583 19.0778 66.1723 19.0049 66.2497 18.9092C66.3318 18.8135 66.3956 18.6973 66.4411 18.5605L67.0017 17.1318ZM66.5163 10.6035L67.9724 15.7783L68.2253 18.2188H66.6804L64.0486 10.6035H66.5163ZM48.9004 28.6816V32.7695C48.7318 32.9564 48.472 33.1569 48.1211 33.3711C47.7747 33.5807 47.3372 33.7607 46.8086 33.9111C46.2799 34.0615 45.6579 34.1367 44.9424 34.1367C44.2816 34.1367 43.6823 34.0319 43.1445 33.8223C42.6068 33.6081 42.1442 33.2959 41.7568 32.8857C41.374 32.471 41.0778 31.9652 40.8682 31.3682C40.6631 30.7666 40.5605 30.0785 40.5605 29.3037V28.75C40.5605 27.9753 40.6654 27.2871 40.875 26.6855C41.0846 26.084 41.3786 25.5781 41.7568 25.168C42.1396 24.7533 42.5885 24.4388 43.1035 24.2246C43.623 24.0104 44.1927 23.9033 44.8125 23.9033C45.7285 23.9033 46.4736 24.0492 47.0479 24.3408C47.6221 24.6279 48.0573 25.0267 48.3535 25.5371C48.6497 26.043 48.8298 26.6286 48.8936 27.2939H46.5898C46.5443 26.9658 46.4577 26.6878 46.3301 26.46C46.207 26.2275 46.0293 26.0521 45.7969 25.9336C45.5645 25.8105 45.2637 25.749 44.8945 25.749C44.6074 25.749 44.3454 25.8105 44.1084 25.9336C43.876 26.0566 43.6777 26.2435 43.5137 26.4941C43.3496 26.7402 43.222 27.0501 43.1309 27.4238C43.0443 27.7975 43.001 28.235 43.001 28.7363V29.3037C43.001 29.8005 43.042 30.2357 43.124 30.6094C43.2106 30.9831 43.3382 31.2952 43.5068 31.5459C43.68 31.792 43.8988 31.9788 44.1631 32.1064C44.432 32.2295 44.7487 32.291 45.1133 32.291C45.3685 32.291 45.5872 32.2705 45.7695 32.2295C45.9518 32.1839 46.1022 32.1292 46.2207 32.0654C46.3438 31.9971 46.4372 31.9333 46.501 31.874V30.3291H44.833V28.6816H48.9004ZM53.7766 28.4355V34H51.4729V26.6035H53.6262L53.7766 28.4355ZM55.9641 26.5488L55.9231 28.6885C55.8319 28.6794 55.7089 28.668 55.5539 28.6543C55.399 28.6406 55.2691 28.6338 55.1643 28.6338C54.8954 28.6338 54.663 28.6657 54.467 28.7295C54.2756 28.7887 54.1161 28.8799 53.9885 29.0029C53.8655 29.1214 53.7743 29.2718 53.7151 29.4541C53.6604 29.6364 53.6353 29.8483 53.6399 30.0898L53.2229 29.8164C53.2229 29.3197 53.2707 28.8685 53.3664 28.4629C53.4667 28.0527 53.608 27.6995 53.7903 27.4033C53.9726 27.1025 54.1936 26.8724 54.4534 26.7129C54.7131 26.5488 55.0048 26.4668 55.3284 26.4668C55.4423 26.4668 55.5539 26.4736 55.6633 26.4873C55.7773 26.501 55.8775 26.5215 55.9641 26.5488ZM57.4839 30.377V30.2334C57.4839 29.6911 57.5613 29.1921 57.7163 28.7363C57.8712 28.276 58.0991 27.8773 58.3999 27.54C58.7007 27.2028 59.0721 26.9408 59.5141 26.7539C59.9562 26.5625 60.4666 26.4668 61.0454 26.4668C61.6287 26.4668 62.1414 26.5625 62.5835 26.7539C63.0301 26.9408 63.4038 27.2028 63.7046 27.54C64.0054 27.8773 64.2332 28.276 64.3882 28.7363C64.5431 29.1921 64.6206 29.6911 64.6206 30.2334V30.377C64.6206 30.9147 64.5431 31.4137 64.3882 31.874C64.2332 32.3298 64.0054 32.7285 63.7046 33.0703C63.4038 33.4076 63.0324 33.6696 62.5903 33.8564C62.1483 34.0433 61.6378 34.1367 61.0591 34.1367C60.4803 34.1367 59.9676 34.0433 59.521 33.8564C59.0744 33.6696 58.7007 33.4076 58.3999 33.0703C58.0991 32.7285 57.8712 32.3298 57.7163 31.874C57.5613 31.4137 57.4839 30.9147 57.4839 30.377ZM59.7876 30.2334V30.377C59.7876 30.6549 59.8081 30.9147 59.8491 31.1562C59.8901 31.3978 59.9585 31.6097 60.0542 31.792C60.1499 31.9697 60.2798 32.1087 60.4438 32.209C60.6079 32.3092 60.813 32.3594 61.0591 32.3594C61.3006 32.3594 61.5011 32.3092 61.6606 32.209C61.8247 32.1087 61.9546 31.9697 62.0503 31.792C62.146 31.6097 62.2143 31.3978 62.2554 31.1562C62.2964 30.9147 62.3169 30.6549 62.3169 30.377V30.2334C62.3169 29.9645 62.2964 29.7116 62.2554 29.4746C62.2143 29.2331 62.146 29.0212 62.0503 28.8389C61.9546 28.652 61.8247 28.5062 61.6606 28.4014C61.4966 28.2965 61.2915 28.2441 61.0454 28.2441C60.8039 28.2441 60.6011 28.2965 60.437 28.4014C60.2775 28.5062 60.1499 28.652 60.0542 28.8389C59.9585 29.0212 59.8901 29.2331 59.8491 29.4746C59.8081 29.7116 59.7876 29.9645 59.7876 30.2334ZM71.2263 32.2021V26.6035H73.5368V34H71.3767L71.2263 32.2021ZM71.445 30.6982L72.0466 30.6846C72.0466 31.1813 71.9874 31.6416 71.8689 32.0654C71.7504 32.4847 71.5749 32.8493 71.3425 33.1592C71.1146 33.4691 70.8321 33.7106 70.4948 33.8838C70.1622 34.0524 69.7771 34.1367 69.3396 34.1367C68.975 34.1367 68.64 34.0866 68.3347 33.9863C68.0339 33.8815 67.7741 33.7197 67.5554 33.501C67.3366 33.2777 67.1657 32.9928 67.0427 32.6465C66.9242 32.2956 66.865 31.8763 66.865 31.3887V26.6035H69.1687V31.4023C69.1687 31.5664 69.1892 31.7077 69.2302 31.8262C69.2712 31.9447 69.3305 32.0449 69.4079 32.127C69.4854 32.2044 69.5811 32.2637 69.695 32.3047C69.8135 32.3411 69.948 32.3594 70.0984 32.3594C70.4447 32.3594 70.7159 32.2865 70.9118 32.1406C71.1078 31.9948 71.2445 31.7965 71.322 31.5459C71.404 31.2952 71.445 31.0127 71.445 30.6982ZM78.331 28.1826V34H76.0273V26.6035H78.1875L78.331 28.1826ZM78.0576 30.0488L77.5175 30.0625C77.5175 29.4974 77.5859 28.9938 77.7226 28.5518C77.8593 28.1051 78.053 27.7269 78.3037 27.417C78.5543 27.1071 78.8528 26.8724 79.1992 26.7129C79.5501 26.5488 79.9397 26.4668 80.3681 26.4668C80.7099 26.4668 81.0221 26.5169 81.3046 26.6172C81.5918 26.7174 81.8379 26.8792 82.0429 27.1025C82.2526 27.3258 82.4121 27.6221 82.5214 27.9912C82.6354 28.3558 82.6923 28.807 82.6923 29.3447V34H80.375V29.3379C80.375 29.0417 80.3339 28.8161 80.2519 28.6611C80.1699 28.5016 80.0514 28.3923 79.8964 28.333C79.7415 28.2738 79.5524 28.2441 79.3291 28.2441C79.0921 28.2441 78.8916 28.2897 78.7275 28.3809C78.5634 28.472 78.4313 28.5996 78.331 28.7637C78.2353 28.9232 78.1647 29.1123 78.1191 29.3311C78.0781 29.5498 78.0576 29.7891 78.0576 30.0488ZM89.4826 32.3047V23.5H91.8V34H89.7219L89.4826 32.3047ZM84.9436 30.3906V30.2471C84.9436 29.6865 85.0051 29.1761 85.1281 28.7158C85.2512 28.251 85.4335 27.8522 85.675 27.5195C85.9165 27.1823 86.2173 26.9225 86.5773 26.7402C86.9374 26.5579 87.3521 26.4668 87.8215 26.4668C88.2408 26.4668 88.6076 26.5648 88.9221 26.7607C89.2365 26.9521 89.5054 27.221 89.7287 27.5674C89.952 27.9137 90.1343 28.3193 90.2756 28.7842C90.4169 29.2445 90.524 29.7412 90.5969 30.2744V30.4453C90.524 30.9466 90.4169 31.4206 90.2756 31.8672C90.1343 32.3092 89.952 32.7012 89.7287 33.043C89.5054 33.3848 89.2342 33.6536 88.9152 33.8496C88.6008 34.041 88.2316 34.1367 87.8078 34.1367C87.3384 34.1367 86.9237 34.0433 86.5637 33.8564C86.2082 33.6696 85.9097 33.4076 85.6682 33.0703C85.4312 32.7331 85.2512 32.3366 85.1281 31.8809C85.0051 31.4251 84.9436 30.9284 84.9436 30.3906ZM87.2473 30.2471V30.3906C87.2473 30.6686 87.2655 30.9261 87.302 31.1631C87.3384 31.4001 87.3999 31.6097 87.4865 31.792C87.5777 31.9697 87.6962 32.1087 87.842 32.209C87.9924 32.3092 88.177 32.3594 88.3957 32.3594C88.6919 32.3594 88.9357 32.2887 89.1271 32.1475C89.3231 32.0062 89.4667 31.8057 89.5578 31.5459C89.6535 31.2861 89.6945 30.9808 89.6809 30.6299V30.0898C89.69 29.7891 89.6695 29.5247 89.6193 29.2969C89.5692 29.0645 89.4895 28.8708 89.3801 28.7158C89.2753 28.5609 89.1408 28.4447 88.9768 28.3672C88.8173 28.2852 88.6281 28.2441 88.4094 28.2441C88.1952 28.2441 88.0129 28.2943 87.8625 28.3945C87.7167 28.4948 87.5982 28.6361 87.507 28.8184C87.4159 28.9961 87.3498 29.208 87.3088 29.4541C87.2678 29.6956 87.2473 29.96 87.2473 30.2471Z" fill="#6D28D9"/>
</svg>
