<svg width="40" height="40" viewBox="0 0 40 40" fill="none" xmlns="http://www.w3.org/2000/svg">
<path d="M10.7025 19.07C13.6875 20.1192 16.8366 20.6243 20 20.5612C23.1635 20.6239 26.3126 20.1184 29.2975 19.0688C31.6275 18.16 32.4538 17.15 32.4538 16.5688V12.125C31.6392 12.6705 30.7652 13.1217 29.8488 13.47C26.6906 14.6009 23.3541 15.1522 20 15.0975C16.6462 15.1512 13.3101 14.6007 10.1513 13.4725C9.23435 13.1242 8.36033 12.6721 7.54626 12.125V16.5625C7.54626 17.155 8.37501 18.16 10.7025 19.07Z" fill="#6D28D9"/>
<path d="M10.7025 27.4512C11.757 27.8534 12.8444 28.1633 13.9525 28.3775C15.9451 28.763 17.9705 28.9526 20 28.9437C22.0294 28.953 24.0549 28.7638 26.0475 28.3787C27.1556 28.1645 28.243 27.8546 29.2975 27.4525C31.6275 26.5437 32.4538 25.5337 32.4538 24.9525V20.715C31.7804 21.1202 31.0727 21.4653 30.3388 21.7462C27.021 22.9209 23.519 23.4896 20 23.425C16.4806 23.4876 12.9787 22.9168 9.66126 21.74C8.92767 21.4583 8.21999 21.1132 7.54626 20.7087V24.95C7.54626 25.5325 8.37501 26.5387 10.7025 27.4512Z" fill="#6D28D9"/>
<path d="M20 37.5C26.875 37.5 32.4538 35.32 32.4538 32.6325V29.0862C31.8412 29.4555 31.1995 29.7741 30.535 30.0387L30.3388 30.1175C27.0216 31.2957 23.5196 31.8677 20 31.8062C16.4803 31.8695 12.978 31.2974 9.66126 30.1175C9.59376 30.0925 9.52876 30.0637 9.46501 30.0387C8.80055 29.7741 8.15883 29.4555 7.54626 29.0862V32.6325C7.54626 35.32 13.125 37.5 20 37.5Z" fill="#6D28D9"/>
<path d="M20 12.235C26.878 12.235 32.4538 10.0557 32.4538 7.3675C32.4538 4.67925 26.878 2.5 20 2.5C13.122 2.5 7.54626 4.67925 7.54626 7.3675C7.54626 10.0557 13.122 12.235 20 12.235Z" fill="#6D28D9"/>
</svg>
